<svg xmlns="http://www.w3.org/2000/svg" viewBox="0 0 986.57 809.21"><defs><style>.cls-1{fill:#333;}.cls-2{fill:#5ebb47;}.cls-3{fill:#0f9cd8;}.cls-4{fill:#f99c1c;}.cls-5{fill:#357a53;}.cls-6{fill:#fff;}</style></defs><title>Asset 3</title><g id="Layer_2" data-name="Layer 2"><g id="logo-iug"><path class="cls-1" d="M208.81,536.94v49.29H196V536.94Z"/><path class="cls-1" d="M217.7,552.7h11.83v4.24a12.94,12.94,0,0,1,4.91-4,15.22,15.22,0,0,1,5.82-1,14.53,14.53,0,0,1,6,1.14,12,12,0,0,1,4.29,3.24,9.36,9.36,0,0,1,2,3.79,19.63,19.63,0,0,1,.52,4.77v21.31H241.24V569.3a18.22,18.22,0,0,0-.36-4,5,5,0,0,0-1.28-2.45,4.41,4.41,0,0,0-1.76-1.11,6.54,6.54,0,0,0-2.09-.33,5.83,5.83,0,0,0-4.61,1.8,7.46,7.46,0,0,0-1.61,5.13v17.91H217.7Z"/><path class="cls-1" d="M283,561.32a13.85,13.85,0,0,0-6.4-1.7,4.77,4.77,0,0,0-2.65.66,2,2,0,0,0-1,1.76,2.29,2.29,0,0,0,.16,1,1.71,1.71,0,0,0,.72.69,6.3,6.3,0,0,0,1.63.59l2.85.65a13.53,13.53,0,0,1,7.32,3.5,8.92,8.92,0,0,1,2.42,6.44,11.59,11.59,0,0,1-1.18,5.29,11.19,11.19,0,0,1-3.27,4,15.27,15.27,0,0,1-5,2.48,22.39,22.39,0,0,1-6.47.89,26.32,26.32,0,0,1-13.41-3.86l4.32-8.37q5,3.4,9.41,3.4a4.61,4.61,0,0,0,2.68-.72,2.15,2.15,0,0,0,1-1.83A3.33,3.33,0,0,0,276,575a1.78,1.78,0,0,0-.69-.78,5.55,5.55,0,0,0-1.54-.66c-.67-.19-1.56-.4-2.65-.62q-5.49-1.11-7.68-3.3a8.18,8.18,0,0,1-2.19-6,11.84,11.84,0,0,1,1.05-5.06,10.5,10.5,0,0,1,3-3.83A14.13,14.13,0,0,1,270,552.3a21.25,21.25,0,0,1,6.17-.85A28,28,0,0,1,287,553.61Z"/><path class="cls-1" d="M307.86,562.57v23.66H296V562.57H292.1V552.7H296V542.63h11.84V552.7h6.73v9.87Z"/><path class="cls-1" d="M318.84,539.81a6.43,6.43,0,0,1,.52-2.58,6.86,6.86,0,0,1,1.44-2.12,6.79,6.79,0,0,1,2.13-1.44,6.36,6.36,0,0,1,2.58-.52,6.43,6.43,0,0,1,2.58.52,6.91,6.91,0,0,1,2.13,1.44,6.83,6.83,0,0,1,1.43,2.12,6.57,6.57,0,0,1,0,5.17,6.83,6.83,0,0,1-1.43,2.12,6.91,6.91,0,0,1-2.13,1.44,6.43,6.43,0,0,1-2.58.52,6.36,6.36,0,0,1-2.58-.52,6.79,6.79,0,0,1-2.13-1.44,6.86,6.86,0,0,1-1.44-2.12A6.44,6.44,0,0,1,318.84,539.81Zm12.62,12.89v33.53H319.62V552.7Z"/><path class="cls-1" d="M352.44,562.57v23.66H340.61V562.57h-3.92V552.7h3.92V542.63h11.83V552.7h6.74v9.87Z"/><path class="cls-1" d="M375.13,552.7v18.89q0,6.21,6,6.21t6-6.21V552.7H399v21.18q0,6.79-4.47,10.2t-13.37,3.4q-8.89,0-13.38-3.4t-4.47-10.2V552.7Z"/><path class="cls-1" d="M419.91,562.57v23.66H408.08V562.57h-3.92V552.7h3.92V542.63h11.83V552.7h6.74v9.87Z"/><path class="cls-1" d="M466.6,536.94v26.8c0,1.44,0,2.91.16,4.42a12,12,0,0,0,1,4.08,6.74,6.74,0,0,0,2.58,3,9.14,9.14,0,0,0,5,1.14,9,9,0,0,0,4.94-1.14,7.14,7.14,0,0,0,2.58-3,11.55,11.55,0,0,0,1-4.08c.11-1.51.17-3,.17-4.42v-26.8h12.75v28.57q0,11.5-5.27,16.8t-16.18,5.3q-10.92,0-16.21-5.3t-5.3-16.8V536.94Z"/><path class="cls-1" d="M506.34,552.7h11.84v4.24a12.84,12.84,0,0,1,4.9-4,15.29,15.29,0,0,1,5.82-1,14.61,14.61,0,0,1,6.05,1.14,12,12,0,0,1,4.28,3.24,9.24,9.24,0,0,1,2,3.79,19.63,19.63,0,0,1,.52,4.77v21.31H529.88V569.3a18.22,18.22,0,0,0-.36-4,5,5,0,0,0-1.27-2.45,4.52,4.52,0,0,0-1.77-1.11,6.49,6.49,0,0,0-2.09-.33,5.84,5.84,0,0,0-4.61,1.8,7.46,7.46,0,0,0-1.6,5.13v17.91H506.34Z"/><path class="cls-1" d="M548.64,539.81a6.44,6.44,0,0,1,.53-2.58,6.53,6.53,0,0,1,1.44-2.12,6.64,6.64,0,0,1,2.12-1.44,6.43,6.43,0,0,1,2.58-.52,6.36,6.36,0,0,1,2.58.52,6.79,6.79,0,0,1,2.13,1.44,6.86,6.86,0,0,1,1.44,2.12,6.69,6.69,0,0,1,0,5.17,6.86,6.86,0,0,1-1.44,2.12,6.79,6.79,0,0,1-2.13,1.44,6.36,6.36,0,0,1-2.58.52,6.43,6.43,0,0,1-2.58-.52,6.64,6.64,0,0,1-2.12-1.44,6.53,6.53,0,0,1-1.44-2.12A6.45,6.45,0,0,1,548.64,539.81Zm12.62,12.89v33.53H549.43V552.7Z"/><path class="cls-1" d="M579,552.7l8,17.19,8.1-17.19h13.21l-17.46,33.53H582.9L565.64,552.7Z"/><path class="cls-1" d="M621.08,571.46q0,7.65,7.2,7.65A6.44,6.44,0,0,0,634.1,576h11.44q-3.46,11.5-17.33,11.51a22.76,22.76,0,0,1-7.78-1.28,17.42,17.42,0,0,1-6-3.63,16.34,16.34,0,0,1-3.89-5.62,18.83,18.83,0,0,1-1.37-7.32,20.52,20.52,0,0,1,1.31-7.55,15.75,15.75,0,0,1,3.72-5.72,16.59,16.59,0,0,1,5.86-3.63,22.08,22.08,0,0,1,7.74-1.28,21.61,21.61,0,0,1,7.65,1.28,15.51,15.51,0,0,1,5.76,3.69,16.06,16.06,0,0,1,3.59,5.92,23.4,23.4,0,0,1,1.24,7.88v1.24ZM635,564.59a7.22,7.22,0,0,0-2.42-4,7.52,7.52,0,0,0-8.93-.06,6.56,6.56,0,0,0-2.19,4.05Z"/><path class="cls-1" d="M652.4,552.7h11.84v5.49a13.53,13.53,0,0,1,4.64-4.61,12.44,12.44,0,0,1,6.4-1.6h1a6.92,6.92,0,0,1,1.27.13v11.31a11.18,11.18,0,0,0-5.1-1.18q-4.11,0-6.18,2.45c-1.37,1.64-2,4-2,7.16v14.38H652.4Z"/><path class="cls-1" d="M704.57,561.32a13.85,13.85,0,0,0-6.4-1.7,4.77,4.77,0,0,0-2.65.66,2,2,0,0,0-1,1.76,2.28,2.28,0,0,0,.17,1,1.71,1.71,0,0,0,.72.69,6.3,6.3,0,0,0,1.63.59l2.85.65a13.56,13.56,0,0,1,7.32,3.5,8.92,8.92,0,0,1,2.42,6.44,11.59,11.59,0,0,1-1.18,5.29,11.19,11.19,0,0,1-3.27,4,15.27,15.27,0,0,1-5,2.48,22.39,22.39,0,0,1-6.47.89,26.32,26.32,0,0,1-13.41-3.86l4.32-8.37q5,3.4,9.41,3.4a4.63,4.63,0,0,0,2.68-.72,2.15,2.15,0,0,0,1.05-1.83,3.06,3.06,0,0,0-.17-1.08,1.69,1.69,0,0,0-.68-.78,5.55,5.55,0,0,0-1.54-.66c-.67-.19-1.56-.4-2.65-.62q-5.49-1.11-7.68-3.3a8.18,8.18,0,0,1-2.19-6,11.84,11.84,0,0,1,1.05-5.06,10.47,10.47,0,0,1,3-3.83,14.28,14.28,0,0,1,4.75-2.42,21.25,21.25,0,0,1,6.17-.85,28,28,0,0,1,10.79,2.16Z"/><path class="cls-1" d="M714.51,539.81a6.61,6.61,0,0,1,.52-2.58,6.86,6.86,0,0,1,1.44-2.12,6.79,6.79,0,0,1,2.13-1.44,6.66,6.66,0,0,1,5.16,0,6.79,6.79,0,0,1,2.13,1.44,6.86,6.86,0,0,1,1.44,2.12,6.69,6.69,0,0,1,0,5.17,6.86,6.86,0,0,1-1.44,2.12,6.79,6.79,0,0,1-2.13,1.44,6.66,6.66,0,0,1-5.16,0,6.79,6.79,0,0,1-2.13-1.44A6.86,6.86,0,0,1,715,542.4,6.62,6.62,0,0,1,714.51,539.81Zm12.62,12.89v33.53H715.3V552.7Z"/><path class="cls-1" d="M748.11,562.57v23.66H736.28V562.57h-3.92V552.7h3.92V542.63h11.83V552.7h6.74v9.87Z"/><path class="cls-1" d="M785.51,552.7h11.9v33.53h-11.9v-3.72a12.42,12.42,0,0,1-10.26,4.77,16.72,16.72,0,0,1-6.74-1.34,16.26,16.26,0,0,1-5.36-3.76,17.41,17.41,0,0,1-3.56-5.69,19.42,19.42,0,0,1-1.28-7.12,18.91,18.91,0,0,1,1.25-6.84,17.47,17.47,0,0,1,3.46-5.65,16.42,16.42,0,0,1,5.3-3.83,16.22,16.22,0,0,1,6.8-1.4A13.66,13.66,0,0,1,785.51,556ZM770.6,569.37a7.84,7.84,0,0,0,.59,3,8.18,8.18,0,0,0,1.6,2.45,7.23,7.23,0,0,0,2.42,1.63,7.84,7.84,0,0,0,3,.59,7.69,7.69,0,0,0,3-.59,7.23,7.23,0,0,0,2.42-1.63,8.44,8.44,0,0,0,1.63-2.42,7,7,0,0,0,.62-2.94,7.2,7.2,0,0,0-.62-3,8.32,8.32,0,0,0-1.63-2.45,7.23,7.23,0,0,0-2.42-1.63,7.51,7.51,0,0,0-3-.59,7.67,7.67,0,0,0-3,.59,7.23,7.23,0,0,0-2.42,1.63,8.28,8.28,0,0,0-1.6,2.39A7.17,7.17,0,0,0,770.6,569.37Z"/><path class="cls-1" d="M804.34,539.81a6.43,6.43,0,0,1,.52-2.58,6.86,6.86,0,0,1,1.44-2.12,6.79,6.79,0,0,1,2.13-1.44,6.36,6.36,0,0,1,2.58-.52,6.43,6.43,0,0,1,2.58.52,6.79,6.79,0,0,1,2.13,1.44,6.67,6.67,0,0,1,1.43,2.12,6.57,6.57,0,0,1,0,5.17,6.67,6.67,0,0,1-1.43,2.12,6.79,6.79,0,0,1-2.13,1.44,6.43,6.43,0,0,1-2.58.52,6.36,6.36,0,0,1-2.58-.52,6.79,6.79,0,0,1-2.13-1.44,6.86,6.86,0,0,1-1.44-2.12A6.44,6.44,0,0,1,804.34,539.81ZM817,552.7v33.53H805.12V552.7Z"/><path class="cls-1" d="M824.74,552.7h11.83v5.49a13.62,13.62,0,0,1,4.64-4.61,12.47,12.47,0,0,1,6.41-1.6h1a7,7,0,0,1,1.28.13v11.31a11.18,11.18,0,0,0-5.1-1.18q-4.12,0-6.18,2.45c-1.37,1.64-2.06,4-2.06,7.16v14.38H824.74Z"/><path class="cls-1" d="M865.93,571.46q0,7.65,7.19,7.65a6.44,6.44,0,0,0,5.82-3.14h11.44q-3.46,11.5-17.33,11.51a22.8,22.8,0,0,1-7.78-1.28,17.28,17.28,0,0,1-6-3.63,16.07,16.07,0,0,1-3.89-5.62,18.65,18.65,0,0,1-1.38-7.32,20.73,20.73,0,0,1,1.31-7.55,15.65,15.65,0,0,1,3.73-5.72,16.46,16.46,0,0,1,5.85-3.63,22.14,22.14,0,0,1,7.75-1.28,21.69,21.69,0,0,1,7.65,1.28,15.56,15.56,0,0,1,5.75,3.69,16.08,16.08,0,0,1,3.6,5.92,23.65,23.65,0,0,1,1.24,7.88v1.24Zm13.86-6.87a7.16,7.16,0,0,0-2.42-4,7.52,7.52,0,0,0-8.93-.06,6.56,6.56,0,0,0-2.19,4.05Z"/><path class="cls-1" d="M220.08,604.15H231.7v53H220.08v-3.64a12.12,12.12,0,0,1-10,4.66,16,16,0,0,1-6.58-1.34,16.26,16.26,0,0,1-5.23-3.7,17,17,0,0,1-3.48-5.56,18.84,18.84,0,0,1-1.25-6.9,19.07,19.07,0,0,1,1.18-6.67,16.64,16.64,0,0,1,3.36-5.52,15.8,15.8,0,0,1,5.2-3.74,16.08,16.08,0,0,1,6.67-1.37,13.36,13.36,0,0,1,10.16,4.28Zm-14.56,36.52a7.63,7.63,0,0,0,.57,3,7.74,7.74,0,0,0,1.57,2.4,7.09,7.09,0,0,0,2.36,1.6,7.63,7.63,0,0,0,3,.57,7.55,7.55,0,0,0,2.91-.57,7.2,7.2,0,0,0,2.36-1.6,8.17,8.17,0,0,0,1.59-2.36,6.86,6.86,0,0,0,.61-2.88,7,7,0,0,0-.61-2.9,8,8,0,0,0-1.59-2.4,7.2,7.2,0,0,0-2.36-1.6,7.71,7.71,0,0,0-5.82,0,7.2,7.2,0,0,0-2.36,1.6,8.55,8.55,0,0,0-1.6,2.33A6.76,6.76,0,0,0,205.52,640.67Z"/><path class="cls-1" d="M251.5,624.39v18.46c0,4,1.95,6.06,5.87,6.06s5.88-2,5.88-6.06V624.39H274.8v20.69q0,6.64-4.37,10t-13.06,3.32q-8.69,0-13.06-3.32t-4.37-10V624.39Z"/><path class="cls-1" d="M329.66,630.2H354.5a69.67,69.67,0,0,1-.32,7A24.32,24.32,0,0,1,352.9,643a22.89,22.89,0,0,1-3.64,6.68,21.45,21.45,0,0,1-5.39,4.85,25.33,25.33,0,0,1-6.8,3,29.24,29.24,0,0,1-7.79,1A27.42,27.42,0,0,1,319,656.64a22.94,22.94,0,0,1-7.95-5.21,23.49,23.49,0,0,1-5.18-8,30.08,30.08,0,0,1,0-20.69,22.72,22.72,0,0,1,5.17-8,23.69,23.69,0,0,1,8.08-5.17,28.75,28.75,0,0,1,10.54-1.85,26,26,0,0,1,13.22,3.26,22.51,22.51,0,0,1,9,10.08L340,625.92a12,12,0,0,0-4.31-5.68,10.78,10.78,0,0,0-6-1.73,12.17,12.17,0,0,0-5.11,1.06,11.09,11.09,0,0,0-3.93,3,14.56,14.56,0,0,0-2.55,4.69,19.05,19.05,0,0,0-.93,6.13,19.51,19.51,0,0,0,.8,5.69,12.77,12.77,0,0,0,2.4,4.53,10.67,10.67,0,0,0,4,3,13.37,13.37,0,0,0,5.49,1.06,15,15,0,0,0,3.57-.42,9.5,9.5,0,0,0,3.1-1.34,7.67,7.67,0,0,0,2.27-2.4,9.58,9.58,0,0,0,1.21-3.57H329.66Z"/><path class="cls-1" d="M360.44,640.48a16,16,0,0,1,1.47-6.8,16.7,16.7,0,0,1,4.08-5.49,19.44,19.44,0,0,1,6.23-3.67,22.34,22.34,0,0,1,7.89-1.34,22.6,22.6,0,0,1,7.82,1.31,19.3,19.3,0,0,1,6.26,3.64,16.37,16.37,0,0,1,4.12,5.55,17.81,17.81,0,0,1,0,14.24,17.2,17.2,0,0,1-4.12,5.56,18.61,18.61,0,0,1-6.29,3.61,24.1,24.1,0,0,1-7.95,1.27,23.08,23.08,0,0,1-7.8-1.27,18.12,18.12,0,0,1-6.16-3.64,17,17,0,0,1-4-5.66A17.71,17.71,0,0,1,360.44,640.48Zm12.2.13a7.45,7.45,0,0,0,.6,3,8.19,8.19,0,0,0,1.6,2.4,7.2,7.2,0,0,0,2.36,1.6,7.55,7.55,0,0,0,2.91.57,7.46,7.46,0,0,0,2.9-.57,7.24,7.24,0,0,0,2.37-1.6,8.16,8.16,0,0,0,1.59-2.4,7.14,7.14,0,0,0,.61-3,7,7,0,0,0-.61-2.9,8.16,8.16,0,0,0-1.59-2.4,7.06,7.06,0,0,0-2.37-1.59,7.29,7.29,0,0,0-2.9-.58,7.38,7.38,0,0,0-2.91.58,7,7,0,0,0-2.36,1.59,8.31,8.31,0,0,0-1.6,2.37A6.93,6.93,0,0,0,372.64,640.61Z"/><path class="cls-1" d="M418.36,604.15v53H406.8v-53Z"/><path class="cls-1" d="M439.18,634v23.12H427.62V634h-4.15v-9.64h4.15v-4.92a22.39,22.39,0,0,1,.76-6.51,11.63,11.63,0,0,1,2.05-3.8,14.62,14.62,0,0,1,3.29-3,15.54,15.54,0,0,1,4-2,13.85,13.85,0,0,1,4.28-.71,11,11,0,0,1,2.71.32,16,16,0,0,1,2.53.9v10.09a13.2,13.2,0,0,0-2.14-.87,7.46,7.46,0,0,0-2.08-.28,4.78,4.78,0,0,0-1.43.22,3.13,3.13,0,0,0-1.38.93,4,4,0,0,0-.86,2,22,22,0,0,0-.22,3.54v4.09h8.11V634Z"/><path class="cls-1" d="M463.12,642.72q0,7.47,7,7.47a6.27,6.27,0,0,0,5.68-3.07H487q-3.39,11.25-16.93,11.24a22.27,22.27,0,0,1-7.6-1.24,16.83,16.83,0,0,1-5.9-3.55,15.69,15.69,0,0,1-3.8-5.49,18.19,18.19,0,0,1-1.34-7.15,20.3,20.3,0,0,1,1.27-7.38,15.53,15.53,0,0,1,3.64-5.58,16.05,16.05,0,0,1,5.72-3.55,21.62,21.62,0,0,1,7.57-1.24,21.21,21.21,0,0,1,7.47,1.24,15.28,15.28,0,0,1,5.62,3.61,15.67,15.67,0,0,1,3.51,5.78,22.86,22.86,0,0,1,1.21,7.69v1.22ZM476.66,636a6.92,6.92,0,0,0-2.36-3.89,7.34,7.34,0,0,0-8.72-.07,6.38,6.38,0,0,0-2.14,4Z"/><path class="cls-1" d="M551.27,604.15h11.62v53H551.27v-3.64a12.14,12.14,0,0,1-10,4.66,16,16,0,0,1-6.58-1.34,16.26,16.26,0,0,1-5.23-3.7,17,17,0,0,1-3.48-5.56,19.56,19.56,0,0,1-.07-13.57,16.78,16.78,0,0,1,3.35-5.52,15.86,15.86,0,0,1,11.88-5.11,13.37,13.37,0,0,1,10.16,4.28Zm-14.56,36.52a7.63,7.63,0,0,0,.57,3,7.4,7.4,0,0,0,1.57,2.4,7.09,7.09,0,0,0,2.36,1.6,7.63,7.63,0,0,0,3,.57,7.46,7.46,0,0,0,2.9-.57,7.14,7.14,0,0,0,2.37-1.6,8.17,8.17,0,0,0,1.59-2.36,6.86,6.86,0,0,0,.61-2.88,7,7,0,0,0-.61-2.9,8,8,0,0,0-1.59-2.4,7.14,7.14,0,0,0-2.37-1.6,7.46,7.46,0,0,0-2.9-.57,7.55,7.55,0,0,0-2.91.57,7.2,7.2,0,0,0-2.36,1.6,8.55,8.55,0,0,0-1.6,2.33A6.76,6.76,0,0,0,536.71,640.67Z"/><path class="cls-1" d="M581.53,642.72q0,7.47,7,7.47a6.27,6.27,0,0,0,5.68-3.07h11.18Q602,658.37,588.5,658.36a22.19,22.19,0,0,1-7.6-1.24,16.87,16.87,0,0,1-5.91-3.55,15.69,15.69,0,0,1-3.8-5.49,18.19,18.19,0,0,1-1.34-7.15,20.3,20.3,0,0,1,1.27-7.38,15.55,15.55,0,0,1,3.65-5.58,16,16,0,0,1,5.71-3.55,21.66,21.66,0,0,1,7.57-1.24,21.21,21.21,0,0,1,7.47,1.24,15.2,15.2,0,0,1,5.62,3.61,15.67,15.67,0,0,1,3.51,5.78,22.86,22.86,0,0,1,1.21,7.69v1.22ZM595.07,636a6.92,6.92,0,0,0-2.36-3.89,7.34,7.34,0,0,0-8.72-.07,6.38,6.38,0,0,0-2.14,4Z"/><path class="cls-1" d="M675.23,630.2h24.84a69.67,69.67,0,0,1-.32,7,24.81,24.81,0,0,1-1.28,5.81,23.13,23.13,0,0,1-3.64,6.68,21.32,21.32,0,0,1-5.4,4.85,25.2,25.2,0,0,1-6.8,3,29.19,29.19,0,0,1-7.79,1,27.5,27.5,0,0,1-10.25-1.85,23.12,23.12,0,0,1-8-5.21,23.47,23.47,0,0,1-5.17-8,30.08,30.08,0,0,1,0-20.69,22.59,22.59,0,0,1,5.17-8,23.69,23.69,0,0,1,8.08-5.17,28.75,28.75,0,0,1,10.54-1.85,26,26,0,0,1,13.21,3.26,22.59,22.59,0,0,1,9,10.08l-11.88,4.92a12.07,12.07,0,0,0-4.31-5.68,10.83,10.83,0,0,0-6-1.73,12.13,12.13,0,0,0-5.11,1.06,10.92,10.92,0,0,0-3.93,3,14.19,14.19,0,0,0-2.55,4.69,20.65,20.65,0,0,0-.13,11.82,12.92,12.92,0,0,0,2.39,4.53,10.83,10.83,0,0,0,4,3,13.44,13.44,0,0,0,5.49,1.06,15.06,15.06,0,0,0,3.58-.42,9.5,9.5,0,0,0,3.1-1.34,7.64,7.64,0,0,0,2.26-2.4,9.58,9.58,0,0,0,1.22-3.57H675.23Z"/><path class="cls-1" d="M718.84,624.39v18.46q0,6.06,5.88,6.06t5.87-6.06V624.39h11.56v20.69q0,6.64-4.38,10c-2.91,2.22-7.27,3.32-13,3.32s-10.15-1.1-13.06-3.32-4.38-5.53-4.38-10V624.39Z"/><path class="cls-1" d="M749.62,611.81a6.27,6.27,0,0,1,.51-2.52,6.63,6.63,0,0,1,3.48-3.48,6.51,6.51,0,0,1,5,0,6.63,6.63,0,0,1,3.48,3.48,6.48,6.48,0,0,1,0,5,6.63,6.63,0,0,1-3.48,3.48,6.51,6.51,0,0,1-5,0,6.63,6.63,0,0,1-3.48-3.48A6.31,6.31,0,0,1,749.62,611.81Zm12.32,12.58v32.76H750.38V624.39Z"/><path class="cls-1" d="M770.25,624.39h11.56v4.15a12.55,12.55,0,0,1,4.79-3.86,14.94,14.94,0,0,1,5.68-1,14.22,14.22,0,0,1,5.9,1.11,11.79,11.79,0,0,1,4.19,3.17,9.1,9.1,0,0,1,1.91,3.7,19.33,19.33,0,0,1,.51,4.66v20.82H793.24V640.61a18.08,18.08,0,0,0-.35-3.93,4.93,4.93,0,0,0-1.25-2.39,4.53,4.53,0,0,0-1.72-1.09,6.52,6.52,0,0,0-2-.32,5.71,5.71,0,0,0-4.5,1.76,7.3,7.3,0,0,0-1.56,5v17.5H770.25Z"/><path class="cls-1" d="M823.44,642.72q0,7.47,7,7.47a6.27,6.27,0,0,0,5.69-3.07h11.17q-3.37,11.25-16.92,11.24a22.23,22.23,0,0,1-7.6-1.24,16.87,16.87,0,0,1-5.91-3.55,15.66,15.66,0,0,1-3.79-5.49,18.19,18.19,0,0,1-1.35-7.15,20.3,20.3,0,0,1,1.28-7.38,15.53,15.53,0,0,1,3.64-5.58,16,16,0,0,1,5.72-3.55,21.56,21.56,0,0,1,7.56-1.24,21.22,21.22,0,0,1,7.48,1.24A15.16,15.16,0,0,1,843,628a15.55,15.55,0,0,1,3.52,5.78,22.86,22.86,0,0,1,1.21,7.69v1.22ZM837,636a6.94,6.94,0,0,0-2.37-3.89,7.33,7.33,0,0,0-8.71-.07,6.38,6.38,0,0,0-2.14,4Zm3.89-26.24-11.11,9.83-5.36-4,9.13-11.17Z"/><path class="cls-1" d="M865.14,642.72q0,7.47,7,7.47a6.27,6.27,0,0,0,5.69-3.07H889q-3.37,11.25-16.92,11.24a22.23,22.23,0,0,1-7.6-1.24,16.87,16.87,0,0,1-5.91-3.55,15.66,15.66,0,0,1-3.79-5.49,18.19,18.19,0,0,1-1.35-7.15,20.3,20.3,0,0,1,1.28-7.38,15.53,15.53,0,0,1,3.64-5.58,16,16,0,0,1,5.72-3.55,21.56,21.56,0,0,1,7.56-1.24,21.22,21.22,0,0,1,7.48,1.24,15.16,15.16,0,0,1,5.61,3.61,15.55,15.55,0,0,1,3.52,5.78,23.11,23.11,0,0,1,1.21,7.69v1.22ZM878.68,636a6.94,6.94,0,0,0-2.37-3.89,7.33,7.33,0,0,0-8.71-.07,6.38,6.38,0,0,0-2.14,4Z"/><path class="cls-2" d="M956.23,420.79l-144.44,68.3a52.83,52.83,0,0,1-39.44,2.28,101.58,101.58,0,0,1-17.47,1.2c-50.1,0-141.72,1.31-171.49-2-29.36-3.24-137.8-31.06-164.08-149.67a1.77,1.77,0,0,0-3.28-.46C401.72,367.65,313.37,506.83,9,560.91c-8,2.62-12.85-12.19-5-16.46,0,0,357-59.6,408-245C442.7,178.08,455.93,130,459.33,117.9a6.31,6.31,0,0,1,5.32-4.61,17.07,17.07,0,0,1,7.91,1.2,5.12,5.12,0,0,1,3.21,5.69c-4,21.28-25,122.46-33.48,163a149.51,149.51,0,0,0-.5,59.82c8.92,45,40.42,111.43,147,128.89a83.14,83.14,0,0,0,12,1c77.12.75,122.54.81,146.49.75a52.83,52.83,0,0,1-6-9.86l-93-196.67a53.18,53.18,0,0,1,25.27-70.59l144.44-68.29a53.2,53.2,0,0,1,70.6,25.27l19.76,41.81a133,133,0,0,0-27-18.12,128.1,128.1,0,0,0-55.21-12.09q-55,0-93.42,38.39-38.37,38.24-38.39,93.1,0,53.73,37.74,92.13,37.72,38.19,90.65,38.21,54.21,0,89.34-39.52,15.51-17.65,22-37.91,6.69-21.87,6.69-50.29V290.9H836.51v35.77H899.4q-2.62,26.63-25,45.72t-50.46,18.95q-33,0-61.26-25.32-30.23-27.27-30.21-69.41,0-40.82,27.11-68,27.12-27.58,67.13-27.59,44.58,0,75.62,41.32l19.42-18.59L981.5,350.21A53.14,53.14,0,0,1,956.23,420.79Z"/><path class="cls-3" d="M541.09,167.46V330.67c0,5.42.2,10.95.62,16.62a45.57,45.57,0,0,0,3.69,15.39,25.57,25.57,0,0,0,9.73,11.2q6.64,4.32,18.71,4.31t18.59-4.31a26.76,26.76,0,0,0,9.73-11.2A43.6,43.6,0,0,0,606,347.29c.41-5.67.62-11.2.62-16.62V167.46h48V337.32q0,43.33-19.82,63.28t-60.95,19.95q-41.13,0-61.07-19.95t-19.94-63.28V167.46Z"/><circle class="cls-4" cx="491.35" cy="38.98" r="38.98"/><rect class="cls-5" x="171.03" y="683.41" width="229.55" height="125.46"/><rect class="cls-6" x="690.2" y="685.07" width="224.26" height="122.49"/><path class="cls-3" d="M916,809H688.68V683.58H916Zm-224.26-3H912.94V686.55H691.72Z"/><path class="cls-6" d="M226.74,724H202.3v13.21h23.08v17.42H202.3v13.64h24.44v17.41h-45v-79.1h45Z"/><path class="cls-6" d="M285.6,726.84a25.38,25.38,0,0,0-6.71-4,17.94,17.94,0,0,0-6.51-1.31,10.53,10.53,0,0,0-6.5,1.89,5.87,5.87,0,0,0-2.52,4.93,4.9,4.9,0,0,0,1.26,3.46,10.91,10.91,0,0,0,3.3,2.36,27.86,27.86,0,0,0,4.62,1.73c1.71.49,3.41,1,5.09,1.57q10.06,3.36,14.74,9T297,761a28.58,28.58,0,0,1-2.05,11,23,23,0,0,1-6,8.44,27.73,27.73,0,0,1-9.65,5.46,40.34,40.34,0,0,1-13,1.94A47.68,47.68,0,0,1,238.6,779l8.81-16.58a35.76,35.76,0,0,0,9.13,6.09,21.93,21.93,0,0,0,8.92,2q5,0,7.5-2.31a7,7,0,0,0,2.46-5.24,7.12,7.12,0,0,0-.63-3.1,6.76,6.76,0,0,0-2.09-2.41,17.11,17.11,0,0,0-3.83-2c-1.58-.63-3.48-1.32-5.72-2.09-2.66-.84-5.26-1.77-7.82-2.78a24.85,24.85,0,0,1-6.82-4,18.8,18.8,0,0,1-4.82-6.35,22.36,22.36,0,0,1-1.84-9.71,28.08,28.08,0,0,1,1.94-10.64,23.78,23.78,0,0,1,5.46-8.19,24.2,24.2,0,0,1,8.6-5.29,32.5,32.5,0,0,1,11.38-1.89A50,50,0,0,1,281.51,706a54.31,54.31,0,0,1,12.27,4.78Z"/><path class="cls-6" d="M349.07,741.42h40.81a113.46,113.46,0,0,1-.52,11.44,40.44,40.44,0,0,1-2.1,9.54,38,38,0,0,1-6,11,34.87,34.87,0,0,1-8.87,8,41.71,41.71,0,0,1-11.17,4.88,47.89,47.89,0,0,1-12.8,1.68,45.15,45.15,0,0,1-16.84-3,38,38,0,0,1-13.06-8.56,38.66,38.66,0,0,1-8.5-13.21A46.1,46.1,0,0,1,307,746a46.57,46.57,0,0,1,3-16.95,37.18,37.18,0,0,1,8.5-13.16,38.54,38.54,0,0,1,13.27-8.5,47.08,47.08,0,0,1,17.31-3,42.92,42.92,0,0,1,21.72,5.35q9.33,5.34,14.79,16.57l-19.51,8.08c-1.82-4.33-4.18-7.45-7.09-9.33a17.74,17.74,0,0,0-9.91-2.84,20,20,0,0,0-8.39,1.73,18.24,18.24,0,0,0-6.45,4.93,23.57,23.57,0,0,0-4.2,7.72,31.18,31.18,0,0,0-1.52,10.07,31.64,31.64,0,0,0,1.31,9.33,21,21,0,0,0,3.93,7.45,17.69,17.69,0,0,0,6.51,4.88,21.83,21.83,0,0,0,9,1.73,24.77,24.77,0,0,0,5.88-.68,15.48,15.48,0,0,0,5.08-2.2,12.56,12.56,0,0,0,3.73-3.94,15.63,15.63,0,0,0,2-5.87H349.07Z"/><rect class="cls-4" x="412.79" y="683.75" width="267.67" height="125.46"/><path class="cls-6" d="M449.79,706.92V786H429.23V706.92Z"/><path class="cls-6" d="M510.43,727.17a25.93,25.93,0,0,0-6.71-4,17.94,17.94,0,0,0-6.51-1.31,10.53,10.53,0,0,0-6.5,1.89,5.88,5.88,0,0,0-2.52,4.93,4.88,4.88,0,0,0,1.26,3.46,11.11,11.11,0,0,0,3.3,2.37,28.21,28.21,0,0,0,4.62,1.72q2.56.73,5.09,1.58,10.07,3.36,14.74,9t4.67,14.63a28.58,28.58,0,0,1-2,11,23,23,0,0,1-6,8.45,27.55,27.55,0,0,1-9.65,5.45,40.3,40.3,0,0,1-13,1.94,47.61,47.61,0,0,1-27.8-8.92l8.81-16.57a35.44,35.44,0,0,0,9.13,6.08,21.94,21.94,0,0,0,8.92,2c3.35,0,5.86-.77,7.5-2.31a7,7,0,0,0,2.47-5.25,7.19,7.19,0,0,0-.63-3.09,6.72,6.72,0,0,0-2.1-2.42,17.12,17.12,0,0,0-3.83-2c-1.58-.63-3.48-1.33-5.72-2.1-2.66-.84-5.26-1.76-7.82-2.78a24.6,24.6,0,0,1-6.82-4,18.7,18.7,0,0,1-4.82-6.35,22.32,22.32,0,0,1-1.84-9.7,28.13,28.13,0,0,1,1.94-10.65,23.64,23.64,0,0,1,5.46-8.18,24.36,24.36,0,0,1,8.6-5.3,32.51,32.51,0,0,1,11.39-1.89,49.58,49.58,0,0,1,12.27,1.63,53.81,53.81,0,0,1,12.27,4.77Z"/><path class="cls-6" d="M565.93,724.34V786H545.37V724.34h-16.9V706.92h54.35v17.42Z"/><path class="cls-6" d="M637.37,772.29H608L603.28,786H581.35l30.11-79.11h22.45L664,786H642.1Zm-5.45-15.64-9.23-26.33-9.24,26.33Z"/><path class="cls-3" d="M733,706.76v79.1H712.42v-79.1Z"/><path class="cls-3" d="M793.62,727a25.27,25.27,0,0,0-6.72-4,17.69,17.69,0,0,0-6.5-1.31,10.51,10.51,0,0,0-6.5,1.88,5.89,5.89,0,0,0-2.52,4.93,4.92,4.92,0,0,0,1.26,3.47,11,11,0,0,0,3.3,2.36,28.42,28.42,0,0,0,4.62,1.73c1.71.49,3.41,1,5.08,1.57q10.08,3.36,14.74,9t4.67,14.64a28.53,28.53,0,0,1-2,11,23.06,23.06,0,0,1-6,8.45,27.55,27.55,0,0,1-9.65,5.45,40.11,40.11,0,0,1-13,1.94,47.67,47.67,0,0,1-27.8-8.91l8.81-16.58a35.76,35.76,0,0,0,9.13,6.09,21.88,21.88,0,0,0,8.91,2q5,0,7.51-2.31a7,7,0,0,0,2.46-5.24,7.12,7.12,0,0,0-.63-3.1,6.7,6.7,0,0,0-2.1-2.41,16.63,16.63,0,0,0-3.82-2.05c-1.58-.63-3.48-1.33-5.72-2.1-2.66-.84-5.27-1.76-7.82-2.78a24.6,24.6,0,0,1-6.82-4,18.66,18.66,0,0,1-4.82-6.34,22.39,22.39,0,0,1-1.84-9.71,28.17,28.17,0,0,1,1.94-10.65,23.5,23.5,0,0,1,5.46-8.18,24.36,24.36,0,0,1,8.6-5.3,32.5,32.5,0,0,1,11.38-1.88,50,50,0,0,1,12.28,1.62A54.94,54.94,0,0,1,801.8,711Z"/><path class="cls-3" d="M865.59,772.12H836.21l-4.72,13.74H809.57l30.1-79.1h22.46l30.11,79.1H870.31Zm-5.46-15.63-9.23-26.34-9.23,26.34Z"/></g></g></svg>